<svg width="51" height="53" viewBox="0 0 51 53" fill="none" xmlns="http://www.w3.org/2000/svg">
<path fill-rule="evenodd" clip-rule="evenodd" d="M25.4926 0C11.4349 0 0 11.8867 0 26.4998C0 32.2951 1.79843 37.6698 4.85563 42.0323L1.67831 51.8779L11.4797 48.6226C15.511 51.3956 20.3218 53 25.5074 53C39.5651 53 51 41.1129 51 26.5002C51 11.8871 39.5651 0.000438054 25.5074 0.000438054L25.4926 0ZM18.3736 13.4607C17.8792 12.23 17.5045 12.1835 16.7554 12.1518C16.5003 12.1364 16.2161 12.121 15.901 12.121C14.9265 12.121 13.9076 12.4169 13.293 13.0712C12.5439 13.8657 10.6854 15.7193 10.6854 19.5208C10.6854 23.3222 13.353 26.9988 13.7126 27.5132C14.0873 28.0268 18.9133 35.941 26.4066 39.1664C32.2664 41.6902 34.0052 41.4563 35.3388 41.1604C37.287 40.7242 39.7301 39.228 40.3447 37.4214C40.9592 35.6139 40.9592 34.0715 40.779 33.7443C40.5993 33.4172 40.1044 33.2308 39.3553 32.8408C38.6062 32.4512 34.9641 30.5817 34.2746 30.3324C33.6 30.0678 32.9558 30.1614 32.4466 30.9093C31.7271 31.9531 31.0229 33.0127 30.4532 33.6511C30.0036 34.1497 29.2688 34.2122 28.6547 33.947C27.8303 33.5891 25.5226 32.7471 22.6748 30.1144C20.4716 28.0738 18.973 25.5347 18.5386 24.7714C18.1038 23.9927 18.4937 23.5403 18.838 23.12C19.2128 22.6368 19.5724 22.2943 19.9471 21.8423C20.3218 21.3907 20.5317 21.1568 20.7715 20.627C21.0265 20.113 20.8463 19.5832 20.6665 19.1937C20.4868 18.8041 18.9882 15.0027 18.3736 13.4607Z" fill="#67C15E"/>
</svg>
