<svg width="36" height="38" viewBox="0 0 36 38" fill="none" xmlns="http://www.w3.org/2000/svg">
<g clip-path="url(#clip0_11_10)">
<rect x="5.75" y="4.125" width="28" height="28.875" rx="14" fill="white"/>
<path fill-rule="evenodd" clip-rule="evenodd" d="M17.9949 0.625C8.34748 0.625 0.5 8.86716 0.5 18.9998C0.5 23.0183 1.73422 26.7451 3.8323 29.77L6.5 33L8.37824 34.3397C11.1448 36.2625 14.4464 37.375 18.0051 37.375C27.6525 37.375 35.5 29.1325 35.5 19.0002C35.5 8.86749 27.6525 0.625304 18.0051 0.625304L17.9949 0.625ZM13.1094 9.9586C12.77 9.10527 12.5129 9.07296 11.9988 9.05101C11.8238 9.04034 11.6287 9.02968 11.4124 9.02968C10.7437 9.02968 10.0444 9.23485 9.62264 9.6885C9.10857 10.2394 7.8331 11.5247 7.8331 14.1606C7.8331 16.7965 9.66385 19.3459 9.91059 19.7026C10.1678 20.0587 13.4797 25.5463 18.6222 27.7829C22.6436 29.5328 23.8369 29.3706 24.7521 29.1654C26.0891 28.863 27.7657 27.8256 28.1875 26.5728C28.6093 25.3195 28.6093 24.25 28.4856 24.0232C28.3622 23.7964 28.0226 23.6671 27.5085 23.3967C26.9945 23.1266 24.495 21.8303 24.0218 21.6574C23.5588 21.4739 23.1168 21.5388 22.7673 22.0574C22.2735 22.7811 21.7902 23.5159 21.3992 23.9586C21.0907 24.3043 20.5865 24.3476 20.165 24.1637C19.5992 23.9156 18.0155 23.3317 16.0611 21.5062C14.5491 20.0913 13.5207 18.3307 13.2226 17.8014C12.9242 17.2615 13.1918 16.9478 13.4281 16.6563C13.6852 16.3212 13.932 16.0838 14.1892 15.7703C14.4464 15.4572 14.5903 15.2951 14.7549 14.9277C14.93 14.5713 14.8063 14.2039 14.6829 13.9338C14.5596 13.6637 13.5311 11.0278 13.1094 9.9586Z" fill="#67C15E"/>
</g>
<defs>
<clipPath id="clip0_11_10">
<rect width="35" height="36.75" fill="white" transform="translate(0.5 0.625)"/>
</clipPath>
</defs>
</svg>
